<svg id="Capa_1" data-name="Capa 1" xmlns="http://www.w3.org/2000/svg" viewBox="0 0 444.82 280.37" fill="#fff"><title>arrow-bottom</title><path d="M434.25,114.2,412.84,92.79a36.56,36.56,0,0,0-26-10.56,35,35,0,0,0-25.7,10.56L222.41,231.55,83.65,92.79A35,35,0,0,0,58,82.23,36.56,36.56,0,0,0,32,92.79L10.85,114.21A35.43,35.43,0,0,0,0,140.19q0,15.42,10.85,25.69L196.71,351.75q10.28,10.85,25.7,10.85a35.43,35.43,0,0,0,26-10.85L434.25,165.88a35,35,0,0,0,10.57-25.69A36.57,36.57,0,0,0,434.25,114.2Z" transform="translate(0 -82.23)"/></svg>