<svg id="Layer_1" data-name="Layer 1" xmlns="http://www.w3.org/2000/svg" viewBox="0 0 512 470.65" fill="#fff"><title>cars</title><path d="M512,339.14a10.67,10.67,0,0,0-10.66-10.66h-48s-44.61-72.29-154.69-72.29q-5.41,0-10.66.23v-85A58.32,58.32,0,0,1,329.1,202a58.25,58.25,0,0,1,97.56-9.27v-1.35A149.32,149.32,0,0,0,288,42.4V31.34a10.67,10.67,0,0,0-21.34,0V42.4A149.33,149.33,0,0,0,128,191.34v1.35A58.26,58.26,0,0,1,225.56,202a58.35,58.35,0,0,1,41.09-30.55v86.9c-88.24,11.9-130.51,70-130.51,70C-44,329.19,6.53,448.19,6.53,448.19H64.78a53.58,53.58,0,0,0,105.1,0H342.13a53.57,53.57,0,0,0,105.09,0h23c19.14,0,30.48-4.42,36.39-7.86.16-.09.31-.2.47-.3a10.66,10.66,0,0,0,4.87-8.94V339.14ZM330.66,279.9A179.93,179.93,0,0,1,361,287.22a161.75,161.75,0,0,1,42.1,21.23,145.25,145.25,0,0,1,23,20H330.66ZM235.37,161.06a80.18,80.18,0,0,0-9.8,7.18,79.8,79.8,0,0,0-69.82-17.09,128.13,128.13,0,0,1,243.2,0,79.93,79.93,0,0,0-60,9.91,80.88,80.88,0,0,0-9.8,7.18,82.34,82.34,0,0,0-9.78-7.18,79.63,79.63,0,0,0-83.95,0ZM189.53,309a188,188,0,0,1,45.18-21.66,207.11,207.11,0,0,1,64-9.8q5.4,0,10.69.27v50.7H164.89A175.74,175.74,0,0,1,189.53,309ZM117.34,470a32.23,32.23,0,1,1,32.23-32.21A32.26,32.26,0,0,1,117.34,470Zm277.32,0a32.23,32.23,0,1,1,32.24-32.21A32.25,32.25,0,0,1,394.66,470Zm96-45.84c-4.22,1.38-10.81,2.73-20.39,2.73H447.13a53.58,53.58,0,0,0-104.91,0H169.79a53.58,53.58,0,0,0-104.91,0H22.64c-2.09-11.44-2.74-28.39,6.77-42.63,14.91-22.34,51.86-34.29,106.83-34.56l6.74.09v.06H490.66v74.31Z" transform="translate(0 -20.67)"/><path d="M298.66,362.87H277.34a10.66,10.66,0,1,0,0,21.32h21.31a10.66,10.66,0,1,0,0-21.32Z" transform="translate(0 -20.67)"/><path d="M117.34,427.1A10.66,10.66,0,1,0,128,437.77,10.66,10.66,0,0,0,117.34,427.1Z" transform="translate(0 -20.67)"/><path d="M394.66,427.1a10.66,10.66,0,1,0,10.69,10.67A10.66,10.66,0,0,0,394.66,427.1Z" transform="translate(0 -20.67)"/></svg>