<svg id="Слой_1" data-name="Слой 1" xmlns="http://www.w3.org/2000/svg" xmlns:xlink="http://www.w3.org/1999/xlink" viewBox="0 0 304.8 329.64" fill="#326294"><defs><style>.cls-1{fill:none;}.cls-2{clip-path:url(#clip-path);}</style><clipPath id="clip-path" transform="translate(0 -5)"><rect class="cls-1" y="5" width="304.8" height="330"/></clipPath></defs><title>family-room</title><g class="cls-2"><path d="M304.7,59.19A65.89,65.89,0,0,0,288.87,27l0-.05a61.22,61.22,0,0,0-20.4-15.34l-.21-.09a66.16,66.16,0,0,0-69,7.32l-.08.06c-10,7.83-16.65,19-17.46,20.45l-.11.19A66.34,66.34,0,0,0,173.91,78a6.41,6.41,0,0,0,3.4,5,23.74,23.74,0,0,0,3.75,1.57A60.58,60.58,0,0,0,211.76,120a59.9,59.9,0,0,0-16.4,12.34,6.4,6.4,0,0,0,9.32,8.77,47.43,47.43,0,0,1,7.5-6.47c3.88,11,13.86,19,25.22,19h1c11.38,0,21.36-8.62,25-20.28a47.27,47.27,0,0,1,22.16,39.71v66.48L227.3,277.38a6.4,6.4,0,1,0,7,10.74l61.13-39.66a6.39,6.39,0,0,0,2.92-5.37v-70A59.34,59.34,0,0,0,265.67,120,60.89,60.89,0,0,0,299.3,69.27a23.87,23.87,0,0,0,4.63-5.73,6.38,6.38,0,0,0,.76-4.36ZM238.36,140.9h-1c-7.66,0-14.13-7.43-14.13-16.21,0-.11,0-.22,0-.32a60.92,60.92,0,0,0,28.73.53c-.5,8.65-6.66,16-13.64,16Zm.38-27.34a47.86,47.86,0,0,1-43.91-28.73,24,24,0,0,0,17.12-19.34,91.36,91.36,0,0,0,11.57.73,87.1,87.1,0,0,0,36.79-8,23.94,23.94,0,0,0,23,17.23c.79,0,1.58,0,2.36-.12a48.05,48.05,0,0,1-46.88,38.18ZM283.26,62.7a11.11,11.11,0,0,1-11.1-11.09V48a6.4,6.4,0,0,0-9.8-5.42,72.82,72.82,0,0,1-38.84,10.81,77.42,77.42,0,0,1-16.34-1.73A6.4,6.4,0,0,0,199.43,58v3.88a11.11,11.11,0,0,1-11.1,11.09,11.91,11.91,0,0,1-1.24-.07l-.29,0-.43-.07c0-.55,0-1.09,0-1.64a53.35,53.35,0,0,1,6.45-25.43l0-.09c.05-.1,5.84-10.12,14.19-16.65l0,0A53.37,53.37,0,0,1,262.68,23l.55.25a48.34,48.34,0,0,1,15.94,12l.11.13a53.13,53.13,0,0,1,12.3,23.48,11.13,11.13,0,0,1-8.31,3.78Zm-99,163.75A49,49,0,0,0,203,161.63a6.67,6.67,0,0,0-.43-.81,49,49,0,0,0-86.33,0,6.07,6.07,0,0,0-.42.79,49,49,0,0,0,18.77,64.82,54,54,0,0,0-29.31,48.07v23.34a6.4,6.4,0,0,0,3,5.4L156,333.64a6.41,6.41,0,0,0,6.86,0l47.84-30.23a6.4,6.4,0,0,0,3-5.44l-.11-23.5a54.23,54.23,0,0,0-29.33-48Zm-24.8-78.58a36.19,36.19,0,0,1,27.78,13,104.43,104.43,0,0,1-55.56,0,36.19,36.19,0,0,1,27.78-13Zm-36.26,36.26a36.16,36.16,0,0,1,2-11.88,116.42,116.42,0,0,0,68.53,0,36.26,36.26,0,1,1-70.53,11.88Zm47.62,47.74c-.8,6.05-6.11,10.15-10.91,10.15h-.78a12.12,12.12,0,0,1-11.47-10.26,49.21,49.21,0,0,0,23.16.11Zm-11.35,88.8L118.1,294.34V274.52A41.23,41.23,0,0,1,136.72,240a25.11,25.11,0,0,0,22.37,14.79h.78c9.66,0,18.19-6.29,21.88-15a41.48,41.48,0,0,1,19,34.75l.09,20Zm-46-171.79a6.4,6.4,0,0,0-2.06-8.82,59.3,59.3,0,0,0-6-3.29,60.46,60.46,0,0,0,20.46-17.08,22.31,22.31,0,0,0,29.6-21.08V82.71A77.71,77.71,0,0,0,80.82,5.07h0c-1.75-.07-3.37-.09-5,0A77.69,77.69,0,0,0,0,82.71V98.62A22.3,22.3,0,0,0,29.6,119.7,60.39,60.39,0,0,0,52.5,138a59.36,59.36,0,0,0-32,52.75v52.39a6.39,6.39,0,0,0,2.92,5.37l58.06,37.68a6.4,6.4,0,0,0,7-10.74L33.34,239.61V190.7a46.51,46.51,0,0,1,18.44-37.18c4,11.5,14.13,20.14,25.38,20.14h1c12.22,0,22-11.06,25.4-23.41l1.13.68a6.4,6.4,0,0,0,8.82-2.05ZM38.13,59.45a45.88,45.88,0,0,0-6.32,23.26V98.62a9.49,9.49,0,0,1-3.65,7.48c-.19.13-.37.26-.55.4A9.5,9.5,0,0,1,12.8,98.62V82.71A64.54,64.54,0,0,1,76.15,17.82c1.33,0,2.69,0,4.17,0a64.71,64.71,0,0,1,62.31,64.86v15.9a9.5,9.5,0,0,1-14.82,7.88,6.28,6.28,0,0,0-.54-.4,9.49,9.49,0,0,1-3.64-7.48V82.71A46.15,46.15,0,0,0,84.47,37.3a6.4,6.4,0,0,0-7.31,5.83A64.88,64.88,0,0,1,74.74,56.3H43.65a6.4,6.4,0,0,0-5.52,3.15Zm40,101.41h-1c-7.23,0-14.34-8.79-14.34-17.74a6.58,6.58,0,0,0-.21-1.62,61.51,61.51,0,0,0,29.41.2c-.44,9.3-7.48,19.16-13.91,19.16Zm-.4-30.27A47.62,47.62,0,0,1,40,112.2a22.2,22.2,0,0,0,4.63-13.59V82.71A33.07,33.07,0,0,1,47.53,69.1H79.35a6.4,6.4,0,0,0,6-4.18A76.64,76.64,0,0,0,89,51.58a33.34,33.34,0,0,1,21.85,31.14v15.9a22.21,22.21,0,0,0,4.63,13.59,47.6,47.6,0,0,1-37.73,18.39Zm0,0" transform="translate(0 -5)"/></g></svg>