<svg id="Слой_1" data-name="Слой 1" xmlns="http://www.w3.org/2000/svg" viewBox="0 0 387.2 287.69" fill="#326294"><title>heartbeat</title><path d="M340.79,36.69a91.12,91.12,0,0,0-128.87,0l-7.23,7.23-7.23-7.23A91.13,91.13,0,0,0,68.58,165.56L197.89,294.88a9.6,9.6,0,0,0,13.58,0L340.79,165.56a91.12,91.12,0,0,0,0-128.87ZM327.21,152,204.69,274.52,82.16,152A71.93,71.93,0,0,1,183.87,50.27l14,14a9.6,9.6,0,0,0,13.57,0l14-14A71.93,71.93,0,0,1,327.21,152Zm0,0" transform="translate(-9 -10)"/><path d="M53.8,131.29H18.6a9.6,9.6,0,1,0,0,19.2H53.8a9.6,9.6,0,0,0,0-19.2Zm0,0" transform="translate(-9 -10)"/><path d="M354.59,131.6H262.71l-14.3-31.45a6.4,6.4,0,0,0-11.86.51L207.34,183,171.81,84.62a6.4,6.4,0,0,0-5.72-4.22A6.22,6.22,0,0,0,160,84.07L136.13,134.8H57a6.4,6.4,0,0,0-6.4,6.4c0,3.54,4.21,6.09,7.75,6.09h83.2c2.48,0,3.39-1.12,4.45-3.36l19-40.44,36.36,100.69a6.4,6.4,0,0,0,6,4.22h0a6.39,6.39,0,0,0,6-4.26l29.9-84.27,9.44,20.77c1,2.29,4.66,3.44,7.18,3.44h96c3.53,0,5-2.56,5-6.09a6.4,6.4,0,0,0-6.4-6.4Zm0,0" transform="translate(-9 -10)"/><path d="M386.6,128.09H357.8a9.6,9.6,0,1,0,0,19.2h28.8a9.6,9.6,0,0,0,0-19.2Zm0,0" transform="translate(-9 -10)"/></svg>