<svg id="Слой_1" data-name="Слой 1" xmlns="http://www.w3.org/2000/svg" viewBox="0 0 249.2 231.08" fill="#2e6399"><title>home</title><path d="M137.76,175.85h51.14a6,6,0,0,0,6-6V126.56a6,6,0,0,0-6-6H137.76a6,6,0,0,0-6,6v43.29a6,6,0,0,0,6,6Zm45.14-12H169.32V132.56h13.57Zm-39.14-31.29h13.57v31.29H143.76Z" transform="translate(0 -9.06)"/><path d="M243.2,97.91a6,6,0,0,0,6-6V67.76a6,6,0,0,0-3.56-5.48L127,9.57a6,6,0,0,0-4.87,0L54.32,39.72V27.83a6,6,0,0,0-12,0V45.05L3.56,62.28A6,6,0,0,0,0,67.76V91.91a6,6,0,0,0,6,6H18V228.14H6a6,6,0,0,0,0,12H243.2a6,6,0,0,0,0-12h-12V97.91ZM124.6,21.62l90.32,40.14H34.28ZM12,73.76H237.2V85.91H12ZM64.75,228.14V181.26H87.48v46.88Zm154.48,0H99.48V175.26a6,6,0,0,0-6-6H58.74a6,6,0,0,0-6,6v52.88H30V97.91H219.23V228.14Z" transform="translate(0 -9.06)"/></svg>