<svg id="Layer_1" data-name="Layer 1" xmlns="http://www.w3.org/2000/svg" viewBox="0 0 128 96" fill="#fff"><title>mail</title><path d="M104,16H24A24,24,0,0,0,0,40V88a24,24,0,0,0,24,24h80a24,24,0,0,0,24-24V40A24,24,0,0,0,104,16Zm16,72a16,16,0,0,1-16,16H24A16,16,0,0,1,8,88V40A16,16,0,0,1,24,24h80a16,16,0,0,1,16,16ZM83.32,61.67,106.5,43.13a4,4,0,1,0-5-6.25L64,66.88l-37.5-30a4,4,0,1,0-5,6.25L44.68,61.67l-23.5,23.5a4,4,0,1,0,5.66,5.66l24-24s.06-.11.1-.16L61.5,75.13a4,4,0,0,0,5,0l10.57-8.45s.06.11.11.16l24,24a4,4,0,1,0,5.66-5.66Z" transform="translate(0 -16)"/></svg>