<?xml version="1.0" encoding="utf-8"?>
<!-- Generator: Adobe Illustrator 21.0.0, SVG Export Plug-In . SVG Version: 6.00 Build 0)  -->
<svg version="1.1" id="Слой_1" xmlns="http://www.w3.org/2000/svg" xmlns:xlink="http://www.w3.org/1999/xlink" x="0px" y="0px"
	 viewBox="0 0 298 494" style="enable-background:new 0 0 298 494;" xml:space="preserve" fill="#fff">
<path d="M151.5,89.1c26.4,0,47.9,21.5,47.9,47.9c0,26.4-21.5,47.9-47.9,47.9c-26.4,0-47.9-21.5-47.9-47.9
	C103.6,110.6,125.1,89.1,151.5,89.1L151.5,89.1z M151.5,252.7c63.8,0,115.7-51.9,115.7-115.7c0-63.8-51.9-115.7-115.7-115.7
	C87.7,21.3,35.8,73.2,35.8,137C35.8,200.8,87.7,252.7,151.5,252.7 M198.3,347.1c23.8-5.4,46.5-14.8,67.2-27.8
	c15.8-10,20.6-30.9,10.6-46.7c-9.9-15.8-30.9-20.6-46.7-10.7c0,0,0,0,0,0c-47.4,29.8-108.4,29.8-155.8,0
	c-15.8-10-36.7-5.2-46.7,10.6c0,0,0,0,0,0.1c-10,15.8-5.2,36.8,10.6,46.7c20.7,13,43.4,22.4,67.2,27.8L40,411.8
	c-13.2,13.2-13.2,34.7,0,47.9c13.2,13.2,34.7,13.2,47.9,0l0,0l63.6-63.6l63.6,63.6c13.2,13.2,34.6,13.2,47.9,0c0,0,0,0,0,0
	c13.2-13.2,13.3-34.6,0.1-47.9c0,0,0,0-0.1-0.1L198.3,347.1"/>
</svg>
